<svg width="24" height="26" viewBox="0 0 24 26" fill="none" xmlns="http://www.w3.org/2000/svg">
    <path d="M12 0.000488281C5.69982 0.000488281 0.574219 5.12609 0.574219 11.4263C0.574219 12.1245 0.574219 17.5255 0.574219 17.6216C0.574219 18.8816 1.59934 19.9067 2.85938 19.9067H3.75211C4.06655 20.7933 4.91322 21.4302 5.90625 21.4302C7.16629 21.4302 8.19141 20.4051 8.19141 19.145V12.9497C8.19141 11.6897 7.16629 10.6646 5.90625 10.6646C4.91322 10.6646 4.06655 11.3014 3.75211 12.188H2.85938C2.59232 12.188 2.33607 12.2345 2.09766 12.319V11.4263C2.09766 5.96612 6.53985 1.52393 12 1.52393C17.4602 1.52393 21.9023 5.96612 21.9023 11.4263V12.319C21.6639 12.2345 21.4077 12.188 21.1406 12.188H20.2479C19.9335 11.3014 19.0868 10.6646 18.0938 10.6646C16.8337 10.6646 15.8086 11.6897 15.8086 12.9497V19.145C15.8086 20.4051 16.8337 21.4302 18.0938 21.4302C18.3243 21.4302 18.547 21.3955 18.757 21.3317C18.4721 22.2692 17.5998 22.9536 16.5703 22.9536H14.1541C13.8397 22.0671 12.993 21.4302 12 21.4302C10.74 21.4302 9.71484 22.4553 9.71484 23.7153C9.71484 24.9754 10.74 26.0005 12 26.0005C12.993 26.0005 13.8397 25.3636 14.1541 24.4771H16.5703C18.6704 24.4771 20.3789 22.7685 20.3789 20.6685V19.9067H21.1406C22.4007 19.9067 23.4258 18.8816 23.4258 17.6216C23.4258 17.5269 23.4258 12.1239 23.4258 11.4263C23.4258 5.12609 18.3002 0.000488281 12 0.000488281ZM5.14453 12.9497C5.14453 12.5297 5.48624 12.188 5.90625 12.188C6.32626 12.188 6.66797 12.5297 6.66797 12.9497V19.145C6.66797 19.565 6.32626 19.9067 5.90625 19.9067C5.48624 19.9067 5.14453 19.565 5.14453 19.145V12.9497ZM2.85938 13.7114H3.62109V18.3833H2.85938C2.43936 18.3833 2.09766 18.0416 2.09766 17.6216V14.4731C2.09766 14.0531 2.43936 13.7114 2.85938 13.7114ZM12 24.4771C11.58 24.4771 11.2383 24.1353 11.2383 23.7153C11.2383 23.2953 11.58 22.9536 12 22.9536C12.42 22.9536 12.7617 23.2953 12.7617 23.7153C12.7617 24.1353 12.42 24.4771 12 24.4771ZM18.8555 19.145C18.8555 19.565 18.5138 19.9067 18.0938 19.9067C17.6737 19.9067 17.332 19.565 17.332 19.145V12.9497C17.332 12.5297 17.6737 12.188 18.0938 12.188C18.5138 12.188 18.8555 12.5297 18.8555 12.9497V19.145ZM21.9023 17.6216C21.9023 18.0416 21.5606 18.3833 21.1406 18.3833H20.3789V13.7114H21.1406C21.5606 13.7114 21.9023 14.0531 21.9023 14.4731V17.6216Z" fill="white"/>
</svg>