<svg width="148" height="146" viewBox="0 0 148 146" fill="none" xmlns="http://www.w3.org/2000/svg">
    <path fill-rule="evenodd" clip-rule="evenodd" d="M34.3689 99.3784C42.9681 99.7249 52.0556 103.982 56.9228 111.237C62.847 120.067 71.541 126.953 82.2579 130.363C108.377 138.673 136.621 123.185 145.343 95.7691C154.066 68.3537 139.963 39.3927 113.844 31.0828C103.127 27.6732 92.0527 28.2701 82.1154 32.0536C73.9512 35.1621 64.0744 33.3857 56.8558 28.6997C54.2838 27.03 51.4574 25.6775 48.4086 24.7075C29.1909 18.5933 8.40924 29.9891 1.99149 50.1608C-4.42627 70.3325 5.95014 91.6415 25.1678 97.7557C28.2167 98.7257 31.3049 99.255 34.3689 99.3784Z" fill="url(#paint0_linear_260)"/>
    <path d="M43.0531 100.107H39.6016V119.476H43.0531V100.107Z" fill="#110239"/>
    <path d="M108.397 100.107H104.945V119.476H108.397V100.107Z" fill="#110239"/>
    <path d="M130.695 32.1667H17.3145V101.862H130.695V32.1667Z" fill="#110239"/>
    <path d="M125.273 36.8401H22.7344V97.2011H125.273V36.8401Z" fill="#453964"/>
    <path d="M94.1511 91.5314H29.4727C29.4727 91.5314 29.7929 67.1569 37.7754 63.6579C45.7579 60.1589 51.0243 77.7845 54.7605 78.0217C58.4967 78.2589 58.1646 63.5867 63.597 61.4162C77.6049 55.8177 76.1816 77.9149 78.7436 77.6777C81.3056 77.4405 83.6185 57.2766 87.1531 57.2766C95.788 57.2648 94.1511 91.5314 94.1511 91.5314Z" fill="white"/>
    <path d="M94.1512 91.5316H29.4727C29.4727 91.5316 31.1095 70.751 39.0446 67.2519C46.9796 63.7529 50.4905 80.5601 54.2267 80.7854C57.963 81.0108 61.462 69.1142 67.2739 68.6516C73.0859 68.189 77.0831 82.4223 79.6569 82.185C82.2308 81.9478 83.5948 59.5422 87.1294 59.5422C94.1512 59.5422 94.1512 91.5316 94.1512 91.5316Z" fill="#01C7E2"/>
    <path d="M94.1512 91.5314H29.4727C29.4727 91.5314 31.5721 81.2597 39.519 77.7488C47.4659 74.2379 51.6529 83.9403 55.3891 84.1775C59.1254 84.4147 60.6436 70.3356 66.4793 69.8731C72.3149 69.4105 69.0768 86.8581 78.3403 86.8581C85.0537 86.8581 84.0337 72.4943 87.5683 72.4943C94.5663 72.4943 94.1512 91.5314 94.1512 91.5314Z" fill="#FD425F"/>
    <path d="M120.863 56.1855H101.684V59.5422H120.863V56.1855Z" fill="white"/>
    <path d="M120.863 63.658H101.684V67.0147H120.863V63.658Z" fill="white"/>
    <path d="M120.863 71.1423H101.684V74.499H120.863V71.1423Z" fill="#01C7E2"/>
    <path d="M120.863 78.6147H101.684V81.9714H120.863V78.6147Z" fill="white"/>
    <path d="M120.863 86.0872H101.684V89.4439H120.863V86.0872Z" fill="#FD425F"/>
    <path d="M31.2295 40.4695H27.7305V43.9685H31.2295V40.4695Z" fill="#01C7E2"/>
    <path d="M50.4894 40.4695H34.6074V43.9685H50.4894V40.4695Z" fill="white"/>
    <path d="M31.2295 46.3406H27.7305V49.8396H31.2295V46.3406Z" fill="#01C7E2"/>
    <path d="M50.4894 46.3406H34.6074V49.8396H50.4894V46.3406Z" fill="white"/>
    <path d="M31.2295 52.2239H27.7305V55.7229H31.2295V52.2239Z" fill="#01C7E2"/>
    <path d="M50.4894 52.2239H34.6074V55.7229H50.4894V52.2239Z" fill="white"/>
    <path d="M120.86 40.4695H70.9961V45.3444H120.86V40.4695Z" fill="white"/>
    <path d="M82.4096 50.8479H57.3945V54.9756H82.4096V50.8479Z" fill="white"/>
    <path d="M45.9129 117.009H36.7324V120.437H45.9129V117.009Z" fill="#110239"/>
    <path d="M111.266 117.009H102.086V120.437H111.266V117.009Z" fill="#110239"/>
    <path d="M61.1175 41.3947C62.3629 41.4896 63.4897 42.0233 63.4897 43.2806H61.4022C61.4022 42.8062 60.904 42.6994 60.6074 42.7113C60.3109 42.7231 59.789 42.7113 59.789 43.0908C59.789 43.9448 63.632 43.0315 63.6439 45.4631C63.6439 46.9101 62.5289 47.4557 61.1293 47.5743L61.2242 49.1163H59.9551L60.0263 47.5625C58.7215 47.4439 57.5117 46.8389 57.5117 45.5342H59.6823C59.6823 46.1154 60.3346 46.2222 60.6667 46.2222C60.9988 46.2222 61.5919 46.2222 61.5919 45.7715C61.5919 44.8819 57.7489 45.7715 57.737 43.3992C57.737 42.0471 58.769 41.5252 60.1093 41.4066L60.0144 39.8528H61.2954L61.1175 41.3947Z" fill="#01C7E2"/>
    <path d="M69.2541 43.4347L67.2852 39.6155L65.3281 43.4347H66.6684V49.1281H67.9138V43.4347H69.2541Z" fill="#FD425F"/>
    <path d="M123.614 64.0019C122.142 65.0846 120.977 66.5316 120.234 68.2007C118.692 71.2727 117.719 72.9451 117.541 72.7791C116.723 72.1267 114.552 70.2645 111.374 65.2947C110.994 64.6898 111.374 64.2984 111.374 63.8358C111.374 63.3732 112.014 62.2583 111.884 61.9499C111.753 61.6415 111.362 61.7127 110.982 62.4599C110.603 63.2072 110.733 63.646 110.437 63.4563C109.954 63.0033 109.528 62.4935 109.168 61.938C108.93 61.5585 108.183 60.7519 107.981 60.918C107.78 61.084 107.744 61.2382 108.871 62.8513C108.456 62.282 107.46 60.9536 107.104 61.2738C106.748 61.5941 107.839 62.6972 108.29 63.2309C107.91 62.7802 107.033 61.8432 106.724 62.1634C106.416 62.4837 108.207 63.9426 108.207 63.9426C108.207 63.9426 106.819 62.8513 106.629 63.1716C106.44 63.4918 107.258 64.2035 108.053 64.6542C108.847 65.1049 108.99 65.271 109.31 65.4252C109.605 65.6964 109.85 66.0177 110.033 66.3741C110.033 66.3741 115.869 78.8519 117.957 77.7014C120.044 76.5509 122.82 72.4707 122.82 72.4707C123.367 71.4559 123.729 70.3512 123.887 69.2089C124.163 67.4733 124.07 65.6991 123.614 64.0019Z" fill="#F88667"/>
    <path d="M119.082 69.292C119.497 68.3075 121.941 63.3615 123.672 62.6379L126.045 63.5512C127.065 64.8322 125.76 67.8687 125.333 68.2126C124.906 68.5566 123.245 72.0556 122.889 72.4233C121.535 71.4879 120.261 70.4404 119.082 69.292Z" fill="#FD425F"/>
    <path d="M127.874 55.5212L131.219 56.0431C130.687 57.8751 130.865 59.8399 131.717 61.5467C131.717 61.5467 129.345 64.1561 127.637 63.4563C127.391 63.3689 127.165 63.2336 126.973 63.0583C126.78 62.883 126.624 62.6711 126.513 62.435C126.403 62.1989 126.341 61.9432 126.33 61.6828C126.319 61.4224 126.36 61.1624 126.451 60.918C126.451 60.918 128.336 59.471 127.874 55.5212Z" fill="#E45940"/>
    <path d="M134.561 117.97C134.561 117.97 135.462 121.528 134.952 122.133C134.442 122.738 126.946 123.995 126.223 123.402C125.499 122.809 125.724 121.623 127.243 120.971C128.761 120.318 129.781 120.638 130.801 120.057C131.821 119.476 131.311 117.827 131.311 117.827L134.561 117.97Z" fill="#110239"/>
    <path d="M125.253 117.377C125.253 117.377 125.431 121.872 124.826 122.37C124.221 122.868 116.63 122.975 116.001 122.275C115.372 121.576 115.74 120.591 117.282 120.247C118.824 119.903 119.654 120.247 120.769 119.749C121.884 119.251 122.181 117.246 122.181 117.246L125.253 117.377Z" fill="#110239"/>
    <path d="M122.035 79.9551L131.808 78.2234C131.808 78.2234 128.108 98.3873 127.621 100.665C127.135 102.942 125.664 118.278 125.664 118.278L121.406 117.768C121.406 117.768 121.406 101.056 121.667 99.5733C121.928 98.0907 122.035 79.9551 122.035 79.9551Z" fill="#01C7E2"/>
    <path d="M125.644 87.9613C125.169 84.8062 125.49 82.3629 124.79 80.8446C124.517 80.2279 123.604 80.3939 123.414 79.7653C123.535 79.622 123.635 79.4622 123.711 79.2908L131.835 78.1047C131.835 78.1047 128.147 95.4575 127.198 99.7038C127.198 99.6445 126.035 90.4877 125.644 87.9613Z" fill="#00A7CC"/>
    <path d="M126.105 78.9824L133.958 80.9751C134.591 83.0847 134.753 85.3077 134.432 87.4868C133.78 91.8517 133.72 98.6955 133.637 99.6326C133.554 100.57 135.108 115.313 135.227 118.848L130.992 119.025C130.992 119.025 127.754 100.546 127.564 100.131C127.375 99.7156 126.105 78.9824 126.105 78.9824Z" fill="#01C7E2"/>
    <path d="M122.462 72.103C122.628 68.8057 121.727 63.8003 123.648 62.6142C125.273 61.6297 126.625 60.835 126.625 60.835C126.77 61.1736 126.995 61.4723 127.28 61.7056C127.565 61.9389 127.902 62.1001 128.262 62.1753C129.448 62.3295 131.263 60.5859 131.263 60.5859C131.263 60.5859 133.386 61.8314 135.296 62.6854C134.833 64.2155 135.782 65.5913 135.77 67.1214C135.774 67.9624 135.886 68.7995 136.102 69.6122C135.353 71.0263 134.783 72.5285 134.406 74.0839C133.979 77.0966 135.343 81.7224 135.343 81.7224C132.949 82.2638 130.519 82.6324 128.072 82.8255C125.65 82.9207 123.229 82.6325 120.896 81.9715C121.599 78.7131 122.121 75.4187 122.462 72.103Z" fill="#FD425F"/>
    <path d="M136.127 69.6241C136.068 69.3988 136.032 69.1734 135.985 68.9362C135.937 68.699 135.913 68.6041 135.89 68.4262C135.827 68.0021 135.795 67.5739 135.795 67.1452C135.795 66.3979 135.795 65.5914 135.795 64.7729C135.391 65.0576 134.917 65.7574 134.431 65.4727C132.189 64.1562 131.881 70.2172 131.881 73.218C131.881 76.2189 131.798 79.7891 130.6 82.5409C132.222 82.342 133.833 82.0609 135.427 81.6987C135.427 81.6987 135.237 81.0582 135.012 80.0856C134.905 79.5993 134.798 79.03 134.692 78.4251C134.692 78.2234 134.632 78.0099 134.597 77.8083C134.514 77.1797 134.443 76.5273 134.419 75.8868C134.388 75.277 134.412 74.6657 134.49 74.0602C134.852 72.52 135.401 71.0301 136.127 69.6241Z" fill="#E42244"/>
    <path d="M131.146 50.006C131.146 50.006 126.402 49.2825 125.809 49.8162C125.216 50.35 125.168 52.2715 125.192 53.8964C125.216 55.5214 124.528 58.6409 126.378 59.2221C128.228 59.8033 131.905 58.0359 133.186 54.7979C134.882 50.6821 131.478 50.0535 131.146 50.006Z" fill="#F88667"/>
    <path d="M131.964 49.6261C131.964 49.6261 129.698 49.6972 129.295 53.1132C129.117 54.6433 128.738 55.8294 129.212 55.9124C129.321 55.9345 129.433 55.934 129.541 55.9108C129.65 55.8877 129.752 55.8424 129.842 55.7778C129.933 55.7133 130.008 55.6308 130.065 55.5356C130.122 55.4404 130.159 55.3345 130.173 55.2245C130.173 54.7738 130.303 53.3267 131.205 53.73C132.106 54.1333 131.81 55.8768 130.659 56.3869C130.599 56.6788 130.631 56.9825 130.753 57.2549C130.874 57.5273 131.078 57.7547 131.335 57.9051C132.049 57.4291 132.66 56.8141 133.131 56.0967C133.601 55.3793 133.923 54.5744 134.075 53.73C134.407 51.0494 133.399 49.543 131.964 49.6261Z" fill="#110239"/>
    <path d="M132.865 49.9229C132.661 49.2667 132.256 48.6913 131.707 48.2783C131.158 47.8653 130.492 47.6356 129.805 47.6218C128.629 47.583 127.466 47.8776 126.45 48.4715C125.435 49.0654 124.607 49.9345 124.064 50.9785C124.064 50.9785 124.752 52.1646 127.35 52.3425C128.708 52.3802 130.058 52.1295 131.312 51.6071C131.674 51.45 131.999 51.219 132.266 50.929C132.534 50.639 132.738 50.2963 132.865 49.9229Z" fill="#110239"/>
    <path d="M139.354 77.5947C139.2 76.8356 138.476 72.3046 138.227 70.6204C136.757 71.1067 135.404 71.6048 133.886 72.0081C134.582 74.0357 135.121 76.1135 135.499 78.2233C135.665 79.7534 134.966 86.5261 134.764 88.8983C134.764 89.0762 134.764 89.2423 134.764 89.3728C134.691 89.8712 134.505 90.346 134.218 90.7605C133.874 91.1875 132.736 92.5871 132.925 93.2039C133.115 93.8207 134.112 92.6938 134.432 92.3143C134.752 91.9347 134.835 93.2039 134.752 93.8918C134.669 94.5798 133.281 95.7185 133.435 96.1929C133.59 96.6673 133.957 96.2878 134.491 95.6828C134.242 96.0505 134.052 96.4182 134.195 96.5131C134.337 96.608 134.716 96.4064 135.096 96.0031C134.894 96.3115 134.764 96.5962 134.894 96.6555C135.025 96.7148 135.487 96.4301 135.843 96.0387C135.665 96.3234 135.535 96.5961 135.665 96.6792C135.796 96.7622 136.721 96.098 137.029 95.1254C137.278 94.3425 136.685 92.1245 136.472 90.9859C136.413 90.649 136.437 90.3028 136.543 89.9777C137.148 87.9731 139.793 79.7534 139.354 77.5947Z" fill="#F88667"/>
    <path d="M133.887 73.4909C135.7 73.1605 137.471 72.6274 139.165 71.9015C138.762 69.0548 137.765 65.1407 136.295 63.5987C135.879 63.1717 135.108 62.4126 134.492 62.6024C133.626 62.8989 132.499 64.0969 132.416 66.4098C132.544 68.1108 132.837 69.7952 133.294 71.4389C133.472 71.9015 133.65 72.7911 133.887 73.4909Z" fill="#FD425F"/>
    <defs>
        <linearGradient id="paint0_linear_260" x1="189.769" y1="83.9377" x2="-24.2385" y2="35.1808" gradientUnits="userSpaceOnUse">
            <stop stop-color="#4F3DFE"/>
            <stop offset="1" stop-color="#A93DFE"/>
        </linearGradient>
    </defs>
</svg>
