<svg width="84" height="34" fill="none" xmlns="http://www.w3.org/2000/svg">
  <g clip-path="url(#a)">
    <circle cx="14.872" cy="19.5" r="14.5" fill="url(#b)"/>
    <path fill-rule="evenodd" clip-rule="evenodd" d="M36.849 8.999c-1.771 0-3.132.485-4.049 1.407-.915.921-1.373 2.264-1.373 3.953v10.88c0 1.689.458 3.032 1.373 3.953.917.922 2.278 1.407 4.049 1.407 1.771 0 3.132-.485 4.049-1.407.915-.921 1.372-2.264 1.372-3.953v-2.78c0-.055-.048-.1-.108-.1h-3.37c-.059 0-.107.045-.107.1v2.99c0 .734-.176 1.213-.47 1.508-.292.294-.72.424-1.269.424-.55 0-.977-.13-1.27-.424-.293-.295-.469-.774-.469-1.509V14.15c0-.735.176-1.222.47-1.525.294-.301.721-.438 1.27-.438.547 0 .974.137 1.267.438.295.303.47.79.47 1.525v2.242c0 .055.05.1.109.1h3.37c.06 0 .108-.045.108-.1v-2.033c0-1.689-.458-3.032-1.373-3.953C39.98 9.484 38.62 9 36.848 9Zm12.595 0c-1.771 0-3.155.485-4.096 1.406-.94.92-1.423 2.264-1.423 3.954v10.88c0 1.69.483 3.033 1.423 3.954.94.921 2.325 1.406 4.096 1.406s3.156-.485 4.096-1.406c.94-.92 1.423-2.264 1.423-3.954v-10.88c0-1.69-.483-3.033-1.423-3.954C52.6 9.484 51.215 9 49.444 9Zm19.11.339c0-.055-.048-.1-.108-.1h-3.175c-.06 0-.108.045-.108.1v11.771L61.714 9.312a.107.107 0 0 0-.104-.074h-4.471c-.06 0-.108.045-.108.1V30.26c0 .055.048.1.108.1h3.207c.06 0 .108-.045.108-.1V15.857l4.227 14.43a.107.107 0 0 0 .104.073h3.661c.06 0 .108-.045.108-.1V9.338Zm15.215.031a.093.093 0 0 0-.015-.09.111.111 0 0 0-.088-.04H70.998c-.06 0-.108.044-.108.099V30.26c0 .055.048.1.108.1h3.564c.06 0 .108-.045.108-.1v-8.538h3.413a.108.108 0 0 0 .102-.068l1.08-2.99a.093.093 0 0 0-.015-.089.111.111 0 0 0-.087-.041H74.67v-6.108h7.916a.108.108 0 0 0 .103-.068l1.08-2.989Zm-36.064 4.78c0-.734.176-1.221.47-1.524.294-.301.721-.438 1.27-.438.547 0 .974.137 1.267.438.295.303.47.79.47 1.525v11.298c0 .735-.175 1.222-.47 1.525-.293.301-.72.438-1.268.438s-.975-.137-1.268-.438c-.295-.303-.47-.79-.47-1.525V14.15Z" fill="url(#c)"/>
    <path d="M15.492 32 6.074 7.809l9.417 10.917L31.074.707l-3.61 7.102L15.493 32Z" fill="url(#d)"/>
  </g>
  <defs>
    <linearGradient id="b" x1="14.872" y1="5" x2="14.872" y2="34" gradientUnits="userSpaceOnUse">
      <stop stop-color="#DC2B49"/>
      <stop offset="1" stop-color="#4539D7"/>
    </linearGradient>
    <linearGradient id="c" x1="39.109" y1="8.999" x2="39.109" y2="30.599" gradientUnits="userSpaceOnUse">
      <stop stop-color="#FBFCFF"/>
      <stop offset="1" stop-color="#D3D0D0"/>
    </linearGradient>
    <linearGradient id="d" x1="17.871" y1="7.5" x2="16.871" y2="38" gradientUnits="userSpaceOnUse">
      <stop offset=".231" stop-color="#fff"/>
      <stop offset="1" stop-color="#fff" stop-opacity="0"/>
    </linearGradient>
    <clipPath id="a">
      <path fill="#fff" d="M0 0h84v34H0z"/>
    </clipPath>
  </defs>
</svg>