<svg width="26" height="26" fill="none" xmlns="http://www.w3.org/2000/svg">
  <g clip-path="url(#a)">
    <path d="M23.343 4.21 13.389.076a1.015 1.015 0 0 0-.778 0L2.657 4.209c-.379.158-.626.528-.626.938v5.024c0 6.917 4.181 13.14 10.585 15.753.246.1.522.1.768 0a17.008 17.008 0 0 0 10.585-15.753V5.147c0-.41-.247-.78-.626-.938Zm-1.405 5.961A14.98 14.98 0 0 1 13 23.881a14.981 14.981 0 0 1-8.938-13.71V5.825L13 2.115l8.938 3.71v4.346Zm-10.06 3.423 4.365-4.365a1.016 1.016 0 1 1 1.436 1.436l-5.083 5.084a1.016 1.016 0 0 1-1.437 0L8.321 12.91a1.016 1.016 0 1 1 1.436-1.436l2.12 2.12Z" fill="#fff"/>
  </g>
  <defs>
    <clipPath id="a">
      <path fill="#fff" d="M0 0h26v26H0z"/>
    </clipPath>
  </defs>
</svg>