<svg width="22" height="28" fill="none" xmlns="http://www.w3.org/2000/svg">
  <path d="M9.726 1a6.145 6.145 0 0 0-1.852.276C4.588 2.296 2.71 5.821 3.73 9.11v.032c.134.369.493 1.54.715 2.259H2.56c-.856 0-1.56.704-1.56 1.56v12.48c0 .856.704 1.56 1.56 1.56H19.2c.856 0 1.56-.704 1.56-1.56V12.96c0-.856-.704-1.56-1.56-1.56H5.55a97.793 97.793 0 0 0-.845-2.6h.016c-.851-2.744.699-5.664 3.445-6.516 2.74-.85 5.675.69 6.533 3.429v.016c.118.412.682 1.242.682 1.242a.52.52 0 1 0 .991-.308s-.587-.894-.682-1.227V5.42c-.765-2.464-2.938-4.137-5.362-4.387A6.066 6.066 0 0 0 9.726 1ZM2.56 12.44H19.2c.288 0 .52.232.52.52v12.48c0 .288-.232.52-.52.52H2.56a.518.518 0 0 1-.52-.52V12.96c0-.288.232-.52.52-.52Zm8.32 4.16c-.884 0-1.56.676-1.56 1.56 0 .468.208.878.52 1.137v1.463c0 .572.468 1.04 1.04 1.04.572 0 1.04-.468 1.04-1.04v-1.463c.312-.26.52-.669.52-1.137 0-.884-.676-1.56-1.56-1.56Z" fill="#fff" stroke="#fff"/>
</svg>