<svg width="22" height="26" viewBox="0 0 22 26" fill="none" xmlns="http://www.w3.org/2000/svg">
    <path d="M21.3426 4.21006L11.3894 0.0776382C11.1401 -0.025854 10.8598 -0.0259048 10.6106 0.0776382L0.657434 4.21006C0.278352 4.36749 0.03125 4.73758 0.03125 5.14805V10.1716C0.03125 17.0886 4.21202 23.3107 10.6162 25.9247C10.8622 26.0251 11.1378 26.0251 11.3838 25.9247C17.7879 23.3108 21.9688 17.0887 21.9688 10.1716V5.14805C21.9688 4.73758 21.7217 4.36749 21.3426 4.21006ZM19.9375 10.1716C19.9375 16.0518 16.4844 21.4649 11 23.8812C5.66218 21.5295 2.0625 16.2111 2.0625 10.1716V5.82608L11 2.11529L19.9375 5.82608V10.1716ZM9.87743 13.5949L14.2428 9.22964C14.6394 8.83304 15.2824 8.83299 15.6791 9.22964C16.0757 9.62629 16.0757 10.2693 15.679 10.6659L10.5956 15.7494C10.1989 16.1461 9.55583 16.1459 9.15928 15.7494L6.32091 12.911C5.92426 12.5144 5.92426 11.8713 6.32091 11.4747C6.71757 11.0781 7.36061 11.0781 7.75721 11.4747L9.87743 13.5949Z" fill="white"/>
</svg>
