<svg width="26" height="26" viewBox="0 0 26 26" fill="none" xmlns="http://www.w3.org/2000/svg">
    <g clip-path="url(#clip0_172:383)">
        <path d="M10.2143 0.000488281H0.928571C0.415325 0.000488281 0 0.415813 0 0.92906V10.2148C0 10.728 0.415325 11.1433 0.928571 11.1433H10.2143C10.7275 11.1433 11.1429 10.728 11.1429 10.2148V7.42906V0.92906C11.1429 0.415813 10.7275 0.000488281 10.2143 0.000488281ZM9.28572 9.2862H1.85714V1.85763H9.28572V9.2862Z" fill="white"/>
        <path d="M10.2143 14.8577H0.928571C0.415325 14.8577 0 15.273 0 15.7862V25.0719C0 25.5852 0.415325 26.0005 0.928571 26.0005H10.2143C10.7275 26.0005 11.1429 25.5852 11.1429 25.0719V15.7862C11.1429 15.273 10.7275 14.8577 10.2143 14.8577ZM9.28572 24.1434H1.85714V16.7148H9.28572V24.1434Z" fill="white"/>
        <path d="M25.0717 14.8577H18.5717H15.786C15.2727 14.8577 14.8574 15.273 14.8574 15.7862V25.0719C14.8574 25.5852 15.2727 26.0005 15.786 26.0005H25.0717C25.5849 26.0005 26.0003 25.5852 26.0003 25.0719V15.7862C26.0003 15.273 25.5849 14.8577 25.0717 14.8577ZM24.1431 24.1434H16.7146V16.7148H24.1431V24.1434Z" fill="white"/>
        <path d="M25.7277 8.08557C26.0904 7.72287 26.0904 7.13522 25.7277 6.77252L19.2277 0.272518C18.865 -0.0901881 18.2773 -0.0901881 17.9146 0.272518L11.4146 6.77252C11.2332 6.9539 11.1426 7.19144 11.1426 7.42905C11.1426 7.66665 11.2332 7.90419 11.4146 8.08557L17.9146 14.5856C18.096 14.767 18.3335 14.8576 18.5712 14.8576C18.8088 14.8576 19.0463 14.767 19.2277 14.5856L25.7277 8.08557ZM13.3842 7.42905L18.5712 2.2421L23.7581 7.42905L18.5712 12.616L13.3842 7.42905Z" fill="white"/>
    </g>
    <defs>
        <clipPath id="clip0_172:383">
            <rect width="26" height="26" fill="white" transform="translate(0 0.000488281)"/>
        </clipPath>
    </defs>
</svg>
