<svg width="147" height="121" viewBox="0 0 147 121" fill="none" xmlns="http://www.w3.org/2000/svg">
    <path fill-rule="evenodd" clip-rule="evenodd" d="M103.615 98.1713C95.7851 96.7427 86.7224 98.7445 80.8611 104.306C73.7271 111.074 64.4871 115.528 54.1255 116.435C28.8727 118.645 6.52063 98.9496 4.20067 72.4432C1.8807 45.9369 20.4714 22.6575 45.7241 20.4472C56.0857 19.5403 65.959 22.3215 74.1604 27.748C80.8986 32.2063 90.1713 32.6032 97.6343 29.8361C100.293 28.8502 103.118 28.202 106.066 27.944C124.646 26.3177 141.092 40.8096 142.799 60.3124C144.506 79.8152 130.828 96.9438 112.247 98.57C109.299 98.828 106.405 98.6803 103.615 98.1713Z" fill="url(#paint0_linear_260)"/>
    <path d="M116.895 9.448C116.895 9.448 122.27 10.6345 128.487 16.0571L121.036 29.643C118.92 27.6012 116.279 26.188 113.406 25.5613L116.895 9.448Z" fill="#FD425F"/>
    <path d="M118.235 18.0742C118.888 15.7011 119.422 13.1738 120.051 10.7295C119.032 10.2255 117.977 9.79723 116.895 9.448L113.406 25.5613C115.352 23.8645 115.874 24.5171 116.218 24.3747C116.8 22.239 117.678 20.1506 118.235 18.0742Z" fill="#E42244"/>
    <path d="M87.7656 2.04397C87.7656 2.04397 108.815 -0.0562196 120.514 5.99516L116.219 24.3391C116.219 24.3391 105.896 18.7861 88.7623 21.1592L87.7656 2.04397Z" fill="#FD425F"/>
    <path d="M89.429 0.394775H87.7441V72.5367H89.429V0.394775Z" fill="#110239"/>
    <path d="M90.7226 70.3652H86.4629V73.7469H90.7226V70.3652Z" fill="#110239"/>
    <path d="M92.3828 73.0112H84.8008V74.708H92.3828V73.0112Z" fill="#110239"/>
    <path d="M57.6152 32.3246V44.3443H60.6172V35.8724C60.6172 35.4602 60.781 35.0648 61.0725 34.7733C61.364 34.4818 61.7593 34.318 62.1716 34.318H75.0693C75.4795 34.3212 75.8718 34.4863 76.1608 34.7775C76.4497 35.0686 76.6118 35.4622 76.6118 35.8724V44.3443H79.6138V32.3246C79.6154 32.1211 79.5766 31.9192 79.4998 31.7307C79.423 31.5422 79.3096 31.3707 79.1662 31.2262C79.0228 31.0817 78.8522 30.9671 78.6643 30.8888C78.4764 30.8105 78.2749 30.7703 78.0713 30.7703H59.1696C58.7574 30.7703 58.362 30.934 58.0705 31.2255C57.779 31.517 57.6152 31.9124 57.6152 32.3246Z" fill="#D0D1DE"/>
    <path d="M112.542 40.2744H24.7019C21.7923 40.2744 19.4336 42.6331 19.4336 45.5427V98.249C19.4336 101.159 21.7923 103.517 24.7019 103.517H112.542C115.451 103.517 117.81 101.159 117.81 98.249V45.5427C117.81 42.6331 115.451 40.2744 112.542 40.2744Z" fill="#110239"/>
    <path d="M117.81 57.8946V45.5427C117.81 44.8499 117.673 44.1638 117.408 43.5239C117.142 42.8839 116.753 42.3026 116.263 41.8133C115.772 41.3239 115.19 40.9361 114.549 40.672C113.909 40.408 113.222 40.2729 112.53 40.2744H24.7253C23.3281 40.2744 21.9881 40.8295 21.0001 41.8175C20.0121 42.8055 19.457 44.1455 19.457 45.5427V57.8946C19.457 61.4947 20.8872 64.9473 23.4328 67.4929C25.9784 70.0386 29.431 71.4687 33.0311 71.4687H104.224C107.825 71.4687 111.279 70.0389 113.826 67.4937C116.374 64.9484 117.807 61.4958 117.81 57.8946Z" fill="#453964"/>
    <path d="M71.7492 68.6211H65.4961V75.7285H71.7492V68.6211Z" fill="#D0D1DE"/>
    <path d="M69.6226 72.0264H67.6055V73.7824H69.6226V72.0264Z" fill="#110239"/>
    <path d="M42.962 8.94971H39.6634C39.6634 8.94971 39.1888 13.4348 38.3345 13.9688C38.3345 13.9688 37.2666 19.2726 41.3127 19.2726C46.2013 19.2726 44.291 13.9688 44.291 13.9688C43.4367 13.4348 42.962 8.94971 42.962 8.94971Z" fill="#F88667"/>
    <path d="M42.962 8.94971H39.6634C39.6634 8.94971 39.1888 13.4348 38.3345 13.9688C38.3345 13.9688 37.2666 19.2726 41.3127 19.2726C46.2013 19.2726 44.291 13.9688 44.291 13.9688C43.4367 13.4348 42.962 8.94971 42.962 8.94971Z" fill="#E45940"/>
    <path d="M45.5961 9.82782C45.1333 9.30574 44.5875 10.1126 44.5875 10.1126C44.5875 10.1126 45.3351 7.14623 44.5875 5.84103C43.84 4.53583 41.3957 5.22403 41.3957 5.22403C41.3957 5.22403 38.9514 4.53583 38.2039 5.84103C37.4564 7.14623 38.2039 10.1126 38.2039 10.1126C38.2039 10.1126 37.6581 9.30574 37.1954 9.82782C36.7326 10.3499 37.9547 11.6788 38.2276 11.8449C38.2276 11.8449 39.9837 15.1317 41.3957 15.1317C42.8077 15.1317 44.5638 11.8449 44.5638 11.8449C44.8367 11.6788 46.047 10.3618 45.5961 9.82782Z" fill="#F88667"/>
    <path d="M40.7909 6.39852C40.7909 6.39852 38.9399 6.73075 38.7381 7.71558C38.6806 8.21167 38.7128 8.71406 38.8331 9.19876C38.9309 9.73943 38.9864 10.2869 38.9992 10.8362C38.9187 10.8652 38.8305 10.8652 38.75 10.8362C38.5124 10.6152 38.3049 10.3639 38.133 10.0887C37.7771 9.56659 37.2787 9.64964 37.1245 9.98188C37.1245 9.98188 36.721 5.11704 38.75 4.93906C40.779 4.76108 40.7909 6.39852 40.7909 6.39852Z" fill="#110239"/>
    <path d="M41.9785 6.39852C41.9785 6.39852 43.8295 6.73075 44.0313 7.71558C44.1009 8.21128 44.0685 8.71598 43.9363 9.19876C43.8356 9.73881 43.784 10.2868 43.7821 10.8362C43.8585 10.8654 43.943 10.8654 44.0194 10.8362C44.2606 10.6154 44.472 10.3641 44.6482 10.0887C44.9923 9.56659 45.5025 9.64964 45.6449 9.98188C45.6449 9.98188 46.0602 5.11704 44.0194 4.93906C41.9785 4.76108 41.9785 6.39852 41.9785 6.39852Z" fill="#110239"/>
    <path d="M45.0259 5.57989C44.9512 5.2236 44.7912 4.89071 44.5598 4.60969C44.3284 4.32867 44.0323 4.10788 43.697 3.96619C42.4494 3.458 41.0692 3.3746 39.7695 3.72888C39.322 3.79051 38.8988 3.96989 38.5432 4.2487C38.1877 4.52751 37.9126 4.89573 37.7461 5.31572C37.5795 5.73571 37.5275 6.1924 37.5953 6.63909C37.6631 7.08578 37.8484 7.50643 38.1321 7.85805C38.4414 8.16839 38.8125 8.41015 39.2213 8.56756C39.6302 8.72497 40.0677 8.79453 40.5052 8.7717C44.0886 8.7717 45.5361 6.67151 45.0259 5.57989Z" fill="#110239"/>
    <path d="M44.3495 13.9688C44.1715 18.4776 41.3712 18.0149 41.3712 18.0149C41.3712 18.0149 38.5591 18.4776 38.393 13.9688C36.0705 14.602 33.8319 15.5102 31.7246 16.6741C32.3185 19.4047 32.6483 22.1861 32.7095 24.9799L35.2724 34.8994L41.3712 35.2079L47.4582 34.8994L50.0211 24.9799C50.0827 22.1855 50.4165 19.4037 51.0178 16.6741C48.9097 15.5122 46.6713 14.6041 44.3495 13.9688Z" fill="#00BAD1"/>
    <g style="mix-blend-mode:multiply" opacity="0.32">
        <path d="M49.5265 19.2846C46.7381 20.7678 45.3854 24.185 42.6801 25.858C39.9748 27.5311 37.9339 24.0901 36.5457 22.2984C35.4026 20.7257 33.8518 19.4949 32.0605 18.7388C32.4184 20.8128 32.6167 22.9112 32.6538 25.0156L35.2167 34.9351L41.3156 35.2436L47.4026 34.9351L49.9655 25.0156C50.0072 22.9435 50.2015 20.8772 50.5469 18.8337C50.1909 18.9523 49.8468 19.1066 49.5265 19.2846Z" fill="#00547A"/>
    </g>
    <path d="M52.6559 38.9218C52.6559 35.4333 48.3369 33.1433 48.3369 33.1433H33.778C33.778 33.1433 29.459 35.4333 29.459 38.9218C29.5046 39.8232 29.6196 40.7197 29.8031 41.6034H34.6323C34.4306 41.9593 34.2526 42.2916 34.1102 42.5763C34.0713 42.6579 34.0277 42.7371 33.9797 42.8136H37.48C37.7529 42.8136 37.6698 42.9204 37.5868 42.5289C37.5037 42.1373 37.1359 41.6627 37.48 41.0813C38.0573 40.5743 38.7891 40.2774 39.5565 40.2388H39.9006C40.66 40.2388 41.4075 40.2388 42.1669 40.2388C42.4553 40.2612 42.7411 40.3088 43.0212 40.3812C43.2585 40.3812 43.9941 40.3812 44.3026 40.7728C44.4632 41.0246 44.5495 41.3166 44.5518 41.6152C44.5422 42.0138 44.4986 42.4107 44.4213 42.8018H48.8115C48.5107 42.4209 48.2295 42.0249 47.9691 41.6152H52.2644C52.4644 40.7289 52.5953 39.8284 52.6559 38.9218Z" fill="#FD425F"/>
    <path d="M52.6559 38.9218C52.6559 35.4333 48.3369 33.1433 48.3369 33.1433H33.778C33.778 33.1433 29.459 35.4333 29.459 38.9218C29.5046 39.8232 29.6196 40.7197 29.8031 41.6034H34.6323C34.4306 41.9593 34.2526 42.2916 34.1102 42.5763C34.0713 42.6579 34.0277 42.7371 33.9797 42.8136H37.48C37.7529 42.8136 37.6698 42.9204 37.5868 42.5289C37.5037 42.1373 37.1359 41.6627 37.48 41.0813C38.0573 40.5743 38.7891 40.2774 39.5565 40.2388H39.9006C40.66 40.2388 41.4075 40.2388 42.1669 40.2388C42.4553 40.2612 42.7411 40.3088 43.0212 40.3812C43.2585 40.3812 43.9941 40.3812 44.3026 40.7728C44.4632 41.0246 44.5495 41.3166 44.5518 41.6152C44.5422 42.0138 44.4986 42.4107 44.4213 42.8018H48.8115C48.5107 42.4209 48.2295 42.0249 47.9691 41.6152H52.2644C52.4644 40.7289 52.5953 39.8284 52.6559 38.9218Z" fill="#BD1337"/>
    <path d="M31.6685 16.7335C31.6685 16.7335 26.1273 28.7176 26.5308 30.3076C26.6257 30.711 33.3653 34.7809 36.5452 34.1876L37.8385 33.9503C37.8385 33.9503 33.1279 16.5912 31.6685 16.7335Z" fill="#00BAD1"/>
    <path d="M50.9474 16.7335C50.9474 16.7335 56.4886 28.7176 56.0852 30.3076C55.9784 30.711 49.2388 34.7809 46.0707 34.1876L44.7773 33.9503C44.7773 33.9503 49.4879 16.5912 50.9474 16.7335Z" fill="#00BAD1"/>
    <g style="mix-blend-mode:multiply" opacity="0.32">
        <path d="M33.8272 20.8628C33.8399 21.4677 33.7882 22.0723 33.6729 22.6663C33.1864 24.8258 32.4152 27.0803 33.222 29.2873C33.9252 30.9998 34.7624 32.6542 35.7257 34.2351C36.0197 34.2518 36.3146 34.2318 36.6037 34.1758L37.897 33.9385C37.897 33.9385 35.6782 25.9649 33.8272 20.8628Z" fill="#00547A"/>
    </g>
    <g style="mix-blend-mode:multiply" opacity="0.32">
        <path d="M47.9112 34.0688C48.3385 33.0599 48.5488 31.9724 48.5282 30.877C48.457 28.67 48.4451 26.463 48.5282 24.2442C48.5282 23.295 48.5282 22.3576 48.6231 21.4558C46.8196 26.5461 44.8262 33.8908 44.8262 33.8908L46.1195 34.1281C46.7153 34.2192 47.3228 34.1991 47.9112 34.0688Z" fill="#00547A"/>
    </g>
    <path d="M35.7836 59.6509C34.3849 61.2684 33.0738 62.9596 31.8562 64.7175C31.4409 65.6074 32.4494 66.7346 33.814 66.2719C35.1785 65.8091 35.9854 64.8836 36.0091 64.2903C36.0328 63.6971 36.7566 63.3767 37.077 63.3292C37.3973 63.2818 39.2246 61.2053 39.0466 60.6358C38.7793 60.1575 38.4008 59.7505 37.9432 59.4492L35.7836 59.6509Z" fill="black"/>
    <path d="M46.2849 59.6509C47.6837 61.2684 48.9948 62.9596 50.2124 64.7175C50.6277 65.6074 49.6191 66.7346 48.2546 66.2719C46.8901 65.8091 46.0832 64.8836 46.0595 64.2903C46.0358 63.6971 45.312 63.3767 44.9916 63.3292C44.6712 63.2818 42.844 61.2053 43.0219 60.6358C43.2893 60.1575 43.6678 59.7505 44.1254 59.4492L46.2849 59.6509Z" fill="black"/>
    <path d="M37.0047 38.7319C36.5894 37.7352 36.5064 35.635 33.6824 35.635C28.2599 35.635 29.5295 39.9896 29.6125 40.6304C30.4313 47.1208 34.3587 60.0422 34.3587 60.0422H39.805C39.805 60.0422 37.8234 44.2019 37.5149 41.7576C37.443 40.7349 37.2722 39.7216 37.0047 38.7319Z" fill="#FD425F"/>
    <path d="M45.0756 38.7319C45.4909 37.7352 45.574 35.635 48.398 35.635C53.8323 35.635 52.5509 39.9896 52.4678 40.6304C51.6491 47.1208 47.7216 60.0422 47.7216 60.0422H42.2754C42.2754 60.0422 44.2569 44.2019 44.5654 41.7576C44.6373 40.7349 44.8082 39.7216 45.0756 38.7319Z" fill="#FD425F"/>
    <path d="M49.299 34.0332H33.3281V34.9824H49.299V34.0332Z" fill="#110239"/>
    <path d="M51.648 22.9629H30.9784C30.8272 22.9617 30.6778 22.9962 30.5425 23.0636C30.4071 23.1311 30.2895 23.2295 30.1993 23.3509C30.1092 23.4723 30.0489 23.6132 30.0235 23.7623C29.998 23.9114 30.0081 24.0644 30.0529 24.2088C30.2428 25.3953 32.8532 34.152 33.3752 34.152H49.2512C49.714 34.152 52.3837 25.4547 52.5735 24.2088C52.6183 24.0644 52.6285 23.9114 52.603 23.7623C52.5776 23.6132 52.5173 23.4723 52.4271 23.3509C52.337 23.2295 52.2194 23.1311 52.084 23.0636C51.9486 22.9962 51.7993 22.9617 51.648 22.9629Z" fill="#110239"/>
    <path d="M42.1676 28.9905C42.1676 29.1595 42.1175 29.3247 42.0236 29.4652C41.9298 29.6057 41.7964 29.7152 41.6403 29.7798C41.4841 29.8445 41.3124 29.8614 41.1466 29.8284C40.9809 29.7955 40.8287 29.7141 40.7092 29.5946C40.5897 29.4751 40.5084 29.3229 40.4754 29.1572C40.4424 28.9915 40.4594 28.8197 40.524 28.6636C40.5887 28.5075 40.6982 28.3741 40.8387 28.2802C40.9792 28.1863 41.1443 28.1362 41.3133 28.1362C41.4255 28.1362 41.5366 28.1583 41.6403 28.2013C41.7439 28.2442 41.8381 28.3071 41.9174 28.3864C41.9967 28.4658 42.0597 28.56 42.1026 28.6636C42.1455 28.7673 42.1676 28.8784 42.1676 28.9905Z" fill="#D0D1DE"/>
    <path d="M62.6244 87.76L63.5855 90.7026H66.6824L64.1787 92.5299L65.1398 95.4844L62.6244 93.6571L60.1208 95.4844L61.07 92.5299L58.5664 90.7026H61.6633L62.6244 87.76Z" fill="#D0D1DE"/>
    <path d="M73.7064 87.76L74.6675 90.7026H77.7763L75.2608 92.5299L76.2219 95.4844L73.7064 93.6571L71.2028 95.4844L72.1639 92.5299L69.6484 90.7026H72.7572L73.7064 87.76Z" fill="#D0D1DE"/>
    <path d="M84.8003 87.76L85.7496 90.7026H88.8583L86.3428 92.5299L87.3039 95.4844L84.8003 93.6571L82.2848 95.4844L83.2459 92.5299L80.7305 90.7026H83.8392L84.8003 87.76Z" fill="#D0D1DE"/>
    <path d="M95.8823 87.76L96.8434 90.7026H99.9403L97.4367 92.5299L98.386 95.4844L95.8823 93.6571L93.3669 95.4844L94.328 92.5299L91.8125 90.7026H94.9212L95.8823 87.76Z" fill="#D0D1DE"/>
    <path d="M106.964 87.76L107.925 90.7026H111.022L108.519 92.5299L109.48 95.4844L106.964 93.6571L104.449 95.4844L105.41 92.5299L102.906 90.7026H106.003L106.964 87.76Z" fill="#D0D1DE"/>
    <defs>
        <linearGradient id="paint0_linear_260" x1="-33.4943" y1="52.7707" x2="169.503" y2="52.1054" gradientUnits="userSpaceOnUse">
            <stop stop-color="#4F3DFE"/>
            <stop offset="1" stop-color="#A93DFE"/>
        </linearGradient>
    </defs>
</svg>
