<svg width="149" height="82" viewBox="0 0 149 82" fill="none" xmlns="http://www.w3.org/2000/svg">
    <path d="M69.4881 8.89143L64.1017 12.702C63.8987 10.9081 63.3422 9.12696 62.3914 7.49947C59.3527 2.29835 53.9993 -0.50389 48.797 0.254974C44.0152 0.95248 40.5819 4.47912 39.8332 9.45504L38.0397 21.3453C35.5381 20.6187 32.8943 20.9201 30.781 22.4151C28.664 23.9128 27.4989 26.3109 27.3547 28.9171L15.5303 26.6468C10.5843 25.6995 6.11946 27.7646 3.87072 32.0393C1.4244 36.6917 2.2852 42.6745 6.17922 47.2702C7.39682 48.7072 8.8903 49.8245 10.5137 50.6126L5.14282 54.4121C2.47748 56.2977 2.07234 60.3074 4.23761 63.3681L10.1186 71.6812C11.2012 73.2114 13.1593 73.688 14.492 72.7452L83.6631 23.8104C84.9956 22.8677 85.1984 20.8627 84.1157 19.3323L78.2347 11.0193C76.0693 7.9587 72.1534 7.00586 69.4881 8.89143ZM29.4232 35.8492L30.0766 36.7729L18.7252 44.8034C15.726 46.9252 11.0941 45.3841 9.30624 41.2682C8.51898 39.4556 8.55922 37.4071 9.36093 35.8174C10.4619 33.6345 12.6272 32.5534 15.1967 33.045L29.3674 35.7661C29.3864 35.7938 29.4038 35.8219 29.4232 35.8492ZM57.0826 10.1511C58.9404 13.1584 58.1815 16.8907 55.6672 18.6694L44.5545 26.531L43.9011 25.6074C43.878 25.5747 43.8533 25.5436 43.8299 25.5111C44.3171 22.2786 45.3746 15.2667 45.9479 11.4635C46.2739 9.3021 47.5788 7.4777 49.5653 6.89418C52.416 6.0569 55.3489 7.34453 57.0826 10.1511Z" fill="white"/>
    <path d="M68.8594 31.5456V75.5457C68.8594 78.8595 71.5455 81.5456 74.8593 81.5456H102.859V31.5456H68.8594Z" fill="white"/>
    <path d="M114.924 31.7724V81.6772H142.87C146.178 81.6772 148.859 78.9962 148.859 75.6887V31.7724H114.924Z" fill="white"/>
</svg>
