<svg width="30" height="27" fill="none" xmlns="http://www.w3.org/2000/svg">
  <path d="M28.86.56c-1.179-.01-3.784.237-5.02 2.34-.099.168-.305.512-.6.98l3.54 1.88 2.92-4.68a.35.35 0 0 0 0-.32.289.289 0 0 0-.24-.16c-.037-.004-.26-.037-.6-.04Zm-6.32 4.4c-1.61 2.533-4.021 6.278-4.7 7.4l-.64-2.1a.64.64 0 0 0-.64-.46.64.64 0 0 0-.16.04l-5.62 1.7a.636.636 0 0 0-.12.04l-1 .3c-1.157.35-1.831 1.603-1.48 2.76l.04.08c.126.414.372.758.68 1.02L.78 23.92a1.712 1.712 0 0 0 .02 2.4c.32.317.749.48 1.2.48.455-.003.9-.174 1.22-.5l5.16-5.1 7.58-2.32a8.592 8.592 0 0 0 5.14-4l5-8.04-3.56-1.88Zm-6.38 6.28.54 1.82-1.3.44-3.14.94-.56-1.84 4.46-1.36ZM4.58 12.72c-.17.012-.35.052-.52.1-1.359.38-2.14 1.8-1.76 3.16a2.55 2.55 0 0 0 2.46 1.86c.228 0 .45-.035.68-.1a2.572 2.572 0 0 0 1.78-3.16 2.556 2.556 0 0 0-2.64-1.86Zm5.9.24.56 1.86-.46.14a.905.905 0 0 1-1.14-.62l-.02-.08c-.15-.495.106-1.01.6-1.16l.46-.14Z" fill="#fff"/>
</svg>