<svg width="96" height="22" viewBox="0 0 96 22" fill="none" xmlns="http://www.w3.org/2000/svg">
    <path fill-rule="evenodd" clip-rule="evenodd" d="M51.6207 0.233398C49.9807 0.233398 48.7207 0.719914 47.872 1.64583C47.0246 2.5703 46.6007 3.91798 46.6007 5.6134V16.5334C46.6007 18.2288 47.0246 19.5765 47.872 20.501C48.7207 21.4269 49.9807 21.9134 51.6207 21.9134C53.2607 21.9134 54.5207 21.4269 55.3694 20.501C56.2169 19.5765 56.6407 18.2288 56.6407 16.5334V13.7434C56.6407 13.6882 56.5959 13.6434 56.5407 13.6434H53.4207C53.3655 13.6434 53.3207 13.6882 53.3207 13.7434V16.7434C53.3207 17.4811 53.1581 17.9618 52.8858 18.2582C52.6152 18.5529 52.2194 18.6834 51.7107 18.6834C51.202 18.6834 50.8062 18.5529 50.5356 18.2582C50.2633 17.9618 50.1007 17.4811 50.1007 16.7434V5.4034C50.1007 4.66582 50.2633 4.17692 50.5364 3.8727C50.8075 3.57065 51.2034 3.4334 51.7107 3.4334C52.218 3.4334 52.6139 3.57065 52.885 3.8727C53.1581 4.17692 53.3207 4.66582 53.3207 5.4034V7.6534C53.3207 7.70863 53.3655 7.7534 53.4207 7.7534H56.5407C56.5959 7.7534 56.6407 7.70863 56.6407 7.6534V5.6134C56.6407 3.91798 56.2169 2.5703 55.3694 1.64583C54.5207 0.719914 53.2607 0.233398 51.6207 0.233398ZM63.283 0.233398C61.643 0.233398 60.3612 0.719818 59.4902 1.64484C58.62 2.56894 58.173 3.91671 58.173 5.6134V16.5334C58.173 18.2301 58.62 19.5779 59.4902 20.502C60.3612 21.427 61.643 21.9134 63.283 21.9134C64.9229 21.9134 66.2047 21.427 67.0758 20.502C67.946 19.5779 68.393 18.2301 68.393 16.5334V5.6134C68.393 3.91671 67.946 2.56894 67.0758 1.64484C66.2047 0.719818 64.9229 0.233398 63.283 0.233398ZM23.0866 0.573397C23.0866 0.531897 23.061 0.494709 23.0222 0.479942C22.9834 0.465175 22.9396 0.475898 22.912 0.506889L19.612 4.2122C19.5957 4.23052 19.5866 4.25419 19.5866 4.27871V16.5934C19.5866 17.3873 19.3811 17.8568 19.0694 18.1308C18.7551 18.407 18.3123 18.5034 17.7966 18.5034L17.2109 18.5031C16.2522 18.5024 15.4831 17.7095 15.5123 16.7513L15.5554 15.3364C15.5567 15.2955 15.5328 15.2579 15.4951 15.2416C15.4575 15.2253 15.4138 15.2337 15.3848 15.2627L12.3848 18.2627L12.4553 18.3333L12.4552 18.3334H12.3555C12.3555 20.1836 13.8442 21.6897 15.6944 21.7096C16.8751 21.7222 17.9873 21.7334 18.2466 21.7334C19.5039 21.7334 20.7179 21.461 21.6177 20.6424C22.5192 19.8221 23.0866 18.4706 23.0866 16.3534V0.573397ZM80.9775 0.573397C80.9775 0.518169 80.9327 0.473397 80.8775 0.473397H77.9375C77.8823 0.473397 77.8375 0.518169 77.8375 0.573397V12.3886L74.6441 0.547358C74.6323 0.503717 74.5927 0.473397 74.5475 0.473397H70.4075C70.3523 0.473397 70.3075 0.518169 70.3075 0.573397V21.5734C70.3075 21.6286 70.3523 21.6734 70.4075 21.6734H73.3775C73.4327 21.6734 73.4775 21.6286 73.4775 21.5734V7.11681L77.391 21.5995C77.4027 21.6431 77.4423 21.6734 77.4875 21.6734H80.8775C80.9327 21.6734 80.9775 21.6286 80.9775 21.5734V0.573397ZM95.0651 0.60502C95.0753 0.574525 95.0702 0.541003 95.0514 0.514926C95.0326 0.488849 95.0024 0.473397 94.9702 0.473397H83.2402C83.185 0.473397 83.1402 0.518169 83.1402 0.573397V21.5734C83.1402 21.6286 83.185 21.6734 83.2402 21.6734H86.5402C86.5955 21.6734 86.6402 21.6286 86.6402 21.5734V13.0034H89.8002C89.8433 13.0034 89.8815 12.9759 89.8951 12.935L90.8951 9.93502C90.9053 9.90453 90.9002 9.871 90.8814 9.84493C90.8626 9.81885 90.8324 9.8034 90.8002 9.8034H86.6402V3.6734H93.9702C94.0133 3.6734 94.0515 3.64585 94.0651 3.60502L95.0651 0.60502ZM34.3324 0.573397C34.3324 0.518169 34.2877 0.473397 34.2324 0.473397H25.2324C25.1772 0.473397 25.1324 0.518169 25.1324 0.573397V21.5734C25.1324 21.6286 25.1772 21.6734 25.2324 21.6734H34.2324C34.2877 21.6734 34.3324 21.6286 34.3324 21.5734V18.5734C34.3324 18.5182 34.2877 18.4734 34.2324 18.4734H28.6324V12.5234H33.0624C33.1177 12.5234 33.1624 12.4786 33.1624 12.4234V9.4234C33.1624 9.36817 33.1177 9.3234 33.0624 9.3234H28.6324V3.6734H34.2324C34.2877 3.6734 34.3324 3.62863 34.3324 3.5734V0.573397ZM45.6173 0.573397C45.6173 0.518169 45.5726 0.473397 45.5173 0.473397H35.3173C35.2621 0.473397 35.2173 0.518169 35.2173 0.573397V3.5734C35.2173 3.62863 35.2621 3.6734 35.3173 3.6734H38.6673V21.5734C38.6673 21.6286 38.7121 21.6734 38.7673 21.6734H42.0673C42.1226 21.6734 42.1673 21.6286 42.1673 21.5734V3.6734H45.5173C45.5726 3.6734 45.6173 3.62863 45.6173 3.5734V0.573397ZM61.673 5.4034C61.673 4.66582 61.8355 4.17692 62.1086 3.8727C62.3798 3.57065 62.7757 3.4334 63.283 3.4334C63.7902 3.4334 64.1861 3.57065 64.4573 3.8727C64.7304 4.17692 64.893 4.66582 64.893 5.4034V16.7434C64.893 17.481 64.7304 17.9699 64.4573 18.2741C64.1861 18.5762 63.7902 18.7134 63.283 18.7134C62.7757 18.7134 62.3798 18.5762 62.1086 18.2741C61.8355 17.9699 61.673 17.481 61.673 16.7434V5.4034Z" fill="url(#paint0_linear_658)"/>
    <path d="M21.3535 0.092041L10.9229 11.677L15.0586 2.7959L0.558594 0.0920413L8.62796 0.11531L21.3535 0.092041Z" fill="#FA8B3D"/>

    <defs>
        <linearGradient id="paint0_linear_658" x1="53.7129" y1="0.233398" x2="53.7129" y2="21.9134" gradientUnits="userSpaceOnUse">
            <stop stop-color="#FBFCFF"/>
            <stop offset="1" stop-color="#D3D0D0"/>
        </linearGradient>
    </defs>
</svg>
