<svg width="495" height="335" viewBox="0 0 495 335" fill="none" xmlns="http://www.w3.org/2000/svg">
    <g opacity="0.1">
        <path d="M207.767 75.6183L188.335 89.3656C187.602 82.8938 185.594 76.468 182.164 70.5965C171.201 51.8323 151.888 41.7226 133.119 44.4604C115.868 46.9768 103.481 59.6999 100.78 77.6517L94.3098 120.549C85.2849 117.927 75.7466 119.015 68.1226 124.408C60.485 129.811 56.2817 138.463 55.7613 147.865L13.1021 139.675C-4.74148 136.257 -20.8495 143.708 -28.9623 159.13C-37.788 175.914 -34.6825 197.498 -20.6339 214.078C-16.2411 219.263 -10.8531 223.294 -4.99643 226.137L-24.373 239.845C-33.9888 246.647 -35.4504 261.113 -27.6387 272.155L-6.42165 302.146C-2.51602 307.667 4.54836 309.386 9.35626 305.985L258.907 129.442C263.714 126.041 264.445 118.807 260.539 113.286L239.322 83.295C231.51 72.2533 217.383 68.8157 207.767 75.6183ZM63.2239 172.875L65.5813 176.207L24.6284 205.179C13.8081 212.834 -2.90255 207.274 -9.35249 192.425C-12.1927 185.885 -12.0475 178.495 -9.15519 172.76C-5.18335 164.885 2.62863 160.984 11.8985 162.758L63.0228 172.575C63.0911 172.675 63.154 172.776 63.2239 172.875ZM163.012 80.163C169.714 91.0125 166.976 104.477 157.905 110.895L117.814 139.257L115.456 135.925C115.373 135.807 115.284 135.695 115.199 135.577C116.957 123.915 120.772 98.6185 122.841 84.8975C124.017 77.0999 128.724 70.518 135.891 68.4128C146.176 65.3921 156.757 70.0375 163.012 80.163Z" fill="white"/>
    </g>
    <g opacity="0.1">
        <path d="M205.498 157.348V316.088C205.498 328.043 215.189 337.734 227.144 337.734H328.161V157.348H205.498Z" fill="white"/>
    </g>
    <g opacity="0.1">
        <path d="M371.688 158.165V338.208H472.511C484.444 338.208 494.116 328.536 494.116 316.603V158.165H371.688Z" fill="white"/>
    </g>
</svg>
